<svg width="14" height="14" viewBox="0 0 14 14" fill="none" xmlns="http://www.w3.org/2000/svg">
<path d="M8.75 8.16667L8.17483 8.26233C8.16095 8.1788 8.16541 8.09325 8.18792 8.01162C8.21042 7.92999 8.25043 7.85424 8.30516 7.78963C8.35989 7.72502 8.42803 7.67309 8.50485 7.63747C8.58167 7.60185 8.66532 7.58337 8.75 7.58333V8.16667ZM2.33333 8.16667V8.75C2.17862 8.75 2.03025 8.68854 1.92085 8.57915C1.81146 8.46975 1.75 8.32138 1.75 8.16667H2.33333ZM3.5 1.75H10.1267V2.91667H3.5V1.75ZM10.8267 8.75H8.75V7.58333H10.8267V8.75ZM9.32575 8.071L9.79533 10.8914L8.645 11.0833L8.17483 8.26233L9.32575 8.071ZM8.645 12.25H8.52017V11.0833H8.645V12.25ZM6.57825 11.2111L5.11117 9.00958L6.08183 8.36208L7.5495 10.5636L6.57825 11.2111ZM4.62583 8.75H2.33333V7.58333H4.62583V8.75ZM1.75 8.16667V3.5H2.91667V8.16667H1.75ZM11.8428 3.157L12.5428 6.657L11.3995 6.88567L10.6995 3.38567L11.8428 3.157ZM5.11117 9.00958C5.05788 8.92972 4.9857 8.86424 4.90104 8.81895C4.81638 8.77367 4.72185 8.75 4.62583 8.75V7.58333C4.91392 7.58335 5.19755 7.6545 5.45154 7.79045C5.70554 7.9264 5.92204 8.12296 6.08183 8.36267L5.11117 9.01017V9.00958ZM9.79533 10.8914C9.8232 11.0585 9.81434 11.2297 9.76937 11.393C9.7244 11.5563 9.6444 11.7079 9.53493 11.8372C9.42546 11.9665 9.28914 12.0704 9.13546 12.1417C8.98178 12.213 8.81441 12.25 8.645 12.25V11.0833L9.79533 10.8914ZM10.8267 7.58333C10.913 7.58337 10.9982 7.56424 11.0763 7.52734C11.1543 7.49044 11.2232 7.43668 11.2779 7.36994C11.3327 7.3032 11.3719 7.22515 11.3928 7.1414C11.4138 7.05766 11.4164 6.97031 11.3995 6.88567L12.5428 6.657C12.5936 6.91084 12.5874 7.17277 12.5247 7.42392C12.4619 7.67507 12.3443 7.90918 12.1802 8.10938C12.0161 8.30958 11.8096 8.47088 11.5757 8.58166C11.3417 8.69243 11.0861 8.74993 10.8273 8.75V7.58333H10.8267ZM10.1267 1.75C10.5313 1.75 10.9234 1.8902 11.2363 2.14667C11.5492 2.40317 11.7635 2.76017 11.8428 3.157L10.6995 3.38567C10.673 3.25333 10.6015 3.13424 10.497 3.04867C10.3926 2.96313 10.2617 2.91646 10.1267 2.91667V1.75ZM8.52017 12.25C8.13597 12.2501 7.75769 12.1553 7.41892 11.9741C7.08016 11.7928 6.79139 11.5307 6.57825 11.2111L7.5495 10.5636C7.65601 10.7234 7.80033 10.8545 7.96966 10.9452C8.13899 11.0358 8.32809 11.0833 8.52017 11.0833V12.25ZM3.5 2.91667C3.34529 2.91667 3.19692 2.97813 3.08752 3.08752C2.97812 3.19692 2.91667 3.34529 2.91667 3.5H1.75C1.75 3.03587 1.93437 2.59075 2.26256 2.26256C2.59075 1.93437 3.03587 1.75 3.5 1.75V2.91667Z" fill="#697C89"/>
<path d="M4.66669 8.16675V2.33341" stroke="#697C89"/>
</svg>
